<svg xmlns="http://www.w3.org/2000/svg" viewBox="0 0 512 512" role="img" aria-labelledby="title">
  <title id="title">NFL Sports Center</title>
  <defs>
    <linearGradient id="background" x1="48" y1="32" x2="464" y2="480" gradientUnits="userSpaceOnUse">
      <stop stop-color="#4f2683"/>
      <stop offset=".52" stop-color="#242044"/>
      <stop offset="1" stop-color="#0b1020"/>
    </linearGradient>
    <linearGradient id="ball" x1="166" y1="142" x2="357" y2="371" gradientUnits="userSpaceOnUse">
      <stop stop-color="#ffffff"/>
      <stop offset="1" stop-color="#c4b5fd"/>
    </linearGradient>
  </defs>
  <rect width="512" height="512" fill="url(#background)"/>
  <path d="M80 156h352M80 356h352M156 80v352M356 80v352" fill="none" stroke="#fff" stroke-opacity=".1" stroke-width="8"/>
  <path d="M162 343c-63-63-48-151 15-193s151-27 193 36c-2 77-43 142-111 181-40 1-72-7-97-24Z" fill="url(#ball)"/>
  <path d="M177 150c52 16 102 54 139 105 28 39 46 80 54 117" fill="none" stroke="#171429" stroke-width="17" stroke-linecap="round"/>
  <path d="m230 210 70 68M252 195l-40 41M276 218l-40 42M300 242l-40 42" fill="none" stroke="#171429" stroke-width="13" stroke-linecap="round"/>
  <circle cx="390" cy="118" r="34" fill="#f5c451"/>
  <path d="m390 98 6 13 15 2-11 10 3 15-13-7-13 7 3-15-11-10 15-2Z" fill="#171429"/>
</svg>
